<?xml version="1.0" encoding="UTF-8"?>
<svg version="1.1" xmlns="http://www.w3.org/2000/svg" width="1024" height="1024">
<path d="M0 0 C337.92 0 675.84 0 1024 0 C1024 337.92 1024 675.84 1024 1024 C686.08 1024 348.16 1024 0 1024 C0 686.08 0 348.16 0 0 Z " fill="#FEFEFE" transform="translate(0,0)"/>
<path d="M0 0 C1.21816406 0.00902344 2.43632812 0.01804688 3.69140625 0.02734375 C4.59761719 0.03894531 5.50382812 0.05054688 6.4375 0.0625 C3.2847777 2.16431487 0.74203623 2.96813531 -2.875 4.0625 C-35.01741541 14.36681533 -64.62040025 33.91942674 -89.16015625 56.87109375 C-91.5485636 59.04978729 -94.01718964 61.07071524 -96.5625 63.0625 C-95.1260288 67.37191359 -91.83481284 68.80503434 -88.1875 71.1875 C-39.65914904 103.91480658 -11.50046063 154.9020086 1.1875 211 C1.33647736 211.65826782 1.48545471 212.31653564 1.63894653 212.99475098 C3.50814628 221.31274827 5.13771582 229.63648216 6.4375 238.0625 C8.90554645 180.26907897 -6.369065 117.4176138 -35.10888672 67.41845703 C-35.55893066 66.62938965 -36.00897461 65.84032227 -36.47265625 65.02734375 C-37.07799194 63.98501587 -37.07799194 63.98501587 -37.69555664 62.92163086 C-38.5625 61.0625 -38.5625 61.0625 -38.5625 58.0625 C-37.6653125 57.92714844 -36.768125 57.79179687 -35.84375 57.65234375 C-16.68139041 54.3464408 0.62550319 46.07143341 12.4375 30.0625 C17.63711559 22.01118412 21.23490883 13.74721936 23.6484375 4.4765625 C24.03902344 3.28160156 24.03902344 3.28160156 24.4375 2.0625 C25.0975 1.7325 25.7575 1.4025 26.4375 1.0625 C26.71722656 2.06667969 26.99695313 3.07085937 27.28515625 4.10546875 C33.66637626 26.21814978 44.78264061 40.15260483 64.69921875 51.33203125 C72.40128695 55.13010417 81.1691892 56.88615929 89.4375 59.0625 C88.03203846 62.93515763 86.18820454 66.43738299 84.21386719 70.03759766 C77.68143821 82.00038937 72.40651222 94.38123735 67.4375 107.0625 C66.98914795 108.20235352 66.98914795 108.20235352 66.53173828 109.36523438 C54.26894074 141.01020859 49.07249815 174.51591954 45.4375 208.0625 C45.32929932 208.99835938 45.22109863 209.93421875 45.10961914 210.8984375 C44.46868827 216.6797805 44.31576534 222.37339043 44.375 228.1875 C44.38176758 229.47914063 44.38176758 229.47914063 44.38867188 230.796875 C44.40027506 232.88544785 44.4182016 234.97398407 44.4375 237.0625 C44.7675 237.0625 45.0975 237.0625 45.4375 237.0625 C45.6708606 235.71224731 45.6708606 235.71224731 45.90893555 234.3347168 C55.19623381 180.96598155 72.08125187 133.75481483 110.4375 94.0625 C111.10910156 93.33933594 111.78070312 92.61617188 112.47265625 91.87109375 C122.63115175 81.19496791 135.12359127 73.01307692 147.4375 65.0625 C130.580925 34.62554953 76.43485818 10.53583793 44.4375 1.0625 C44.4375 0.7325 44.4375 0.4025 44.4375 0.0625 C58.06084058 -0.73496384 71.07968002 1.59165363 84.4375 4.0625 C85.38657227 4.23378418 86.33564453 4.40506836 87.31347656 4.58154297 C142.73072252 14.79928173 196.5623 40.6720953 239.4375 77.0625 C240.42878906 77.86945313 241.42007813 78.67640625 242.44140625 79.5078125 C250.2842151 85.96062195 257.55434439 92.96591736 264.75 100.125 C265.66885986 101.03467529 266.58771973 101.94435059 267.53442383 102.8815918 C273.59564614 108.97017855 279.08048385 115.35241972 284.4375 122.0625 C285.50963671 123.34507773 286.58594789 124.62418728 287.66796875 125.8984375 C300.67860604 141.38729141 311.58737622 158.41860322 321.4375 176.0625 C321.83888184 176.77486816 322.24026367 177.48723633 322.65380859 178.22119141 C345.70636371 219.44189888 364.01623278 271.34335197 363.4375 319.0625 C361.67295984 316.41568976 360.60042272 314.18942616 359.44140625 311.2578125 C345.53206084 276.64047404 326.30755407 242.40474944 299.4375 216.0625 C299.09082275 216.48958252 298.74414551 216.91666504 298.38696289 217.35668945 C297.6559436 218.25713989 297.6559436 218.25713989 296.91015625 219.17578125 C296.37003906 219.84109863 295.82992187 220.50641602 295.2734375 221.19189453 C294.08011454 222.66087773 292.88609127 224.12929228 291.69140625 225.59716797 C289.12539695 228.75006894 286.56331572 231.90487349 284.02734375 235.08203125 C275.71349186 245.44715126 266.8259567 255.72194695 256.4375 264.0625 C254.98730469 265.2690625 254.98730469 265.2690625 253.5078125 266.5 C244.04920896 274.25313766 233.93303896 280.80453203 223.4375 287.0625 C222.8079541 287.44003418 222.1784082 287.81756836 221.52978516 288.20654297 C202.79094552 299.27311428 181.87895107 305.99164494 160.92163086 311.40844727 C158.86280566 311.95052026 156.81780199 312.54477934 154.77734375 313.15234375 C150.75524966 314.24842319 146.73704599 314.96131367 142.625 315.625 C141.88185547 315.75068359 141.13871094 315.87636719 140.37304688 316.00585938 C134.74735755 316.93136037 129.11483262 317.55029859 123.4375 318.0625 C155.73847539 318.5893666 186.04693612 314.34865312 217.41845703 306.77539062 C220.1464732 306.13122054 222.87840774 305.53098149 225.62109375 304.953125 C251.8137953 299.32455746 279.1228899 290.66217807 300.4375 274.0625 C301.4275 273.4025 302.4175 272.7425 303.4375 272.0625 C303.52386719 272.77792969 303.61023438 273.49335938 303.69921875 274.23046875 C306.18163153 291.83510251 314.08661802 305.49569351 326.4375 318.0625 C327.05109375 318.68898438 327.6646875 319.31546875 328.296875 319.9609375 C336.95802855 328.14091585 348.15436224 333.56242461 359.4375 337.0625 C356.50677352 339.50602131 353.40260368 341.10313782 349.95507812 342.71289062 C341.81401308 346.5273427 335.07622024 350.92440457 328.4375 357.0625 C327.73367188 357.68640625 327.02984375 358.3103125 326.3046875 358.953125 C313.89164248 370.53863369 305.20523626 386.14709272 303.4375 403.0625 C300.19106772 401.59088263 297.65961214 399.71249279 294.875 397.5 C278.48208938 385.59153744 258.56782512 380.0033034 239.4375 374.0625 C238.5407959 373.78390137 237.6440918 373.50530273 236.72021484 373.21826172 C231.66223319 371.67360864 226.57839416 370.3024085 221.4375 369.0625 C220.61910645 368.86350098 219.80071289 368.66450195 218.95751953 368.45947266 C189.24899837 361.40170788 156.03867214 355.8779385 125.4375 357.0625 C125.4375 357.3925 125.4375 357.7225 125.4375 358.0625 C126.32606689 358.20236328 127.21463379 358.34222656 128.13012695 358.48632812 C148.06863908 361.67710565 167.26277499 365.56778467 186.4375 372.0625 C187.36804199 372.37413086 188.29858398 372.68576172 189.25732422 373.00683594 C210.27672698 380.17124914 229.9056962 390.41323606 247.4375 404.0625 C248.00581543 404.50384277 248.57413086 404.94518555 249.15966797 405.39990234 C269.12002045 421.12821089 284.36598298 440.10492145 298.4375 461.0625 C301.70645358 459.97284881 302.20277898 459.41810613 304.1875 456.7734375 C304.70779785 456.08701172 305.2280957 455.40058594 305.76416016 454.69335938 C306.3163623 453.94892578 306.86856445 453.20449219 307.4375 452.4375 C308.01419434 451.66986328 308.59088867 450.90222656 309.18505859 450.11132812 C310.37263249 448.52702552 311.55669877 446.9400878 312.73730469 445.35058594 C314.2668229 443.29219354 315.8072567 441.24261464 317.3515625 439.1953125 C334.23146901 416.67372601 348.19670071 392.33132685 358.82446289 366.26831055 C359.29420532 365.12036011 359.29420532 365.12036011 359.7734375 363.94921875 C360.04720215 363.27076904 360.3209668 362.59231934 360.60302734 361.89331055 C361.4375 360.0625 361.4375 360.0625 363.4375 357.0625 C362.98772726 369.90428716 361.74485801 382.41844334 359.4375 395.0625 C359.26154297 396.03203613 359.08558594 397.00157227 358.90429688 398.00048828 C353.52006855 426.65097104 343.94975931 454.75519483 331.4375 481.0625 C331.04916992 481.89523437 330.66083984 482.72796875 330.26074219 483.5859375 C318.5122264 508.66506347 303.34474825 531.95308757 285.4375 553.0625 C284.65375 554.03058594 283.87 554.99867188 283.0625 555.99609375 C276.30589485 564.24305203 268.88964753 571.82542948 261.375 579.375 C260.86838837 579.88678802 260.36177673 580.39857605 259.83981323 580.9258728 C253.04531391 587.77502583 246.02615112 594.08367695 238.4375 600.0625 C237.21051589 601.05156053 235.98389239 602.04106879 234.7578125 603.03125 C227.20698213 609.04107109 219.51797889 614.77587997 211.4375 620.0625 C210.71804199 620.53381348 209.99858398 621.00512695 209.25732422 621.49072266 C186.89459666 636.00818067 163.43867593 647.82100146 138.4375 657.0625 C137.53918457 657.39862305 136.64086914 657.73474609 135.71533203 658.08105469 C110.23661865 667.5577483 84.00954315 672.9748124 57 675.9375 C55.80318604 676.06979004 54.60637207 676.20208008 53.37329102 676.33837891 C44.22847496 677.26472141 44.22847496 677.26472141 40.4375 676.0625 C41.73445801 675.64121826 41.73445801 675.64121826 43.05761719 675.21142578 C72.00745305 665.73448748 97.35137766 654.02391546 121.4375 635.0625 C122.33597656 634.35738281 123.23445313 633.65226563 124.16015625 632.92578125 C133.02200734 625.82354951 141.46426442 618.15101128 149.4375 610.0625 C144.78796029 606.92590575 140.10933227 603.85409246 135.35473633 600.87841797 C128.27135063 596.41861567 121.77630056 591.54894253 115.4375 586.0625 C114.63441406 585.381875 113.83132813 584.70125 113.00390625 584 C108.01409465 579.69176469 103.64121673 575.13249241 99.4375 570.0625 C98.40689453 568.86367187 98.40689453 568.86367187 97.35546875 567.640625 C91.0608997 560.18856077 85.60571033 552.32004119 80.4375 544.0625 C80.0559375 543.45341797 79.674375 542.84433594 79.28125 542.21679688 C67.07429273 522.40168395 59.74849519 500.33295666 53.4375 478.0625 C53.21868164 477.31097656 52.99986328 476.55945313 52.77441406 475.78515625 C49.02385887 462.80684384 47.33813674 449.40973676 45.4375 436.0625 C44.24045937 494.93234413 55.48514975 563.12242293 88.56640625 613.0703125 C90.4375 616.0625 90.4375 616.0625 90.4375 618.0625 C89.43332031 618.22105469 88.42914062 618.37960937 87.39453125 618.54296875 C73.91156851 620.79068174 62.27064337 624.381517 51.4375 633.0625 C50.26380859 633.990625 50.26380859 633.990625 49.06640625 634.9375 C37.14824288 644.90614929 29.76279852 659.30559915 25.4375 674.0625 C23.71670315 670.823353 22.48855365 667.51185079 21.25 664.0625 C14.79214062 647.30950249 4.29115067 632.83070141 -12.39599609 625.22705078 C-21.26089596 621.38993863 -29.90531574 619.02160392 -39.5625 618.0625 C-38.25939848 614.46703139 -36.57840569 611.24878711 -34.64453125 607.95361328 C-7.61773904 561.82127726 6.00103946 501.12997363 5.5 447.75 C5.49323242 446.33557617 5.49323242 446.33557617 5.48632812 444.89257812 C5.47477094 442.6158121 5.45848783 440.33919511 5.4375 438.0625 C5.27314453 439.16029785 5.27314453 439.16029785 5.10546875 440.28027344 C-3.73912225 498.11167432 -26.14841175 559.29656263 -74.94921875 595.3671875 C-93.98738883 609.0625 -93.98738883 609.0625 -97.5625 609.0625 C-88.24613147 620.10640706 -78.09252133 629.42589668 -66.5625 638.0625 C-65.98983398 638.49594727 -65.41716797 638.92939453 -64.82714844 639.37597656 C-56.46679203 645.67369792 -47.7938395 651.08458511 -38.55517578 656.00097656 C-37.26557584 656.68796266 -35.97978838 657.38217465 -34.69873047 658.08496094 C-24.80565144 663.50329169 -14.55906789 667.41283035 -3.90258789 671.09375 C-2.86610107 671.45210937 -1.82961426 671.81046875 -0.76171875 672.1796875 C0.16809814 672.49534668 1.09791504 672.81100586 2.0559082 673.13623047 C4.4375 674.0625 4.4375 674.0625 7.4375 676.0625 C-8.4196559 676.98323808 -24.97910352 674.04828519 -40.39111328 670.55322266 C-41.99449929 670.19086535 -43.59998272 669.83775998 -45.20654297 669.48974609 C-91.58449081 659.39677336 -135.4176022 639.26933861 -173.5625 611.0625 C-174.14580078 610.63227539 -174.72910156 610.20205078 -175.33007812 609.75878906 C-194.6386191 595.4284061 -212.67091621 579.10858877 -228.5625 561.0625 C-229.23176514 560.31033203 -229.23176514 560.31033203 -229.91455078 559.54296875 C-266.10564057 518.69440368 -291.69878146 467.99257126 -304.5625 415.0625 C-304.90607544 413.75043579 -304.90607544 413.75043579 -305.2565918 412.41186523 C-307.09460928 405.31627626 -308.5031399 398.24161843 -309.625 391 C-309.87878418 389.38134033 -309.87878418 389.38134033 -310.13769531 387.72998047 C-312.15147878 374.60158671 -314.10109396 361.37773948 -313.5625 348.0625 C-312.10226458 350.79880048 -311.10844864 353.37829999 -310.3359375 356.37890625 C-303.6494969 381.49960968 -292.97967634 404.12106047 -277.5625 425.0625 C-277.12180176 425.6615918 -276.68110352 426.26068359 -276.22705078 426.87792969 C-270.46455019 434.62536282 -264.2201192 441.79736691 -257.50854492 448.73852539 C-253.48210026 452.9307202 -249.95376894 457.34254218 -246.5625 462.0625 C-244.35065836 459.18132633 -242.46681872 456.24125968 -240.65820312 453.08862305 C-231.80731703 437.73170459 -220.3470558 423.26964303 -206.5625 412.0625 C-206.07152832 411.65918457 -205.58055664 411.25586914 -205.07470703 410.84033203 C-168.12042026 380.60299784 -122.60624769 364.66938134 -75.625 358.421875 C-73.57702648 358.26877045 -73.57702648 358.26877045 -72.5625 357.0625 C-128.97877338 355.91375235 -192.69934848 370.00386873 -242.72460938 396.11132812 C-245.98530206 397.7988492 -249.27578106 399.42638 -252.5625 401.0625 C-252.84222656 400.06992187 -253.12195313 399.07734375 -253.41015625 398.0546875 C-260.86265783 372.451585 -274.47635401 356.107543 -297.5625 343.0625 C-300.20996151 341.68398048 -302.87749725 340.36758495 -305.5625 339.0625 C-305.5625 338.4025 -305.5625 337.7425 -305.5625 337.0625 C-304.02142578 336.33546875 -304.02142578 336.33546875 -302.44921875 335.59375 C-293.32280116 331.20878724 -284.02355887 326.72818871 -276.89453125 319.33203125 C-275.5625 318.0625 -275.5625 318.0625 -273.5625 318.0625 C-273.16804688 317.19625 -273.16804688 317.19625 -272.765625 316.3125 C-271.4991571 313.94404056 -270.0392821 312.1159706 -268.3125 310.0625 C-261.7321794 301.66644778 -258.04360566 292.44070733 -255.29833984 282.23022461 C-254.80649558 280.4808971 -254.19341971 278.76661204 -253.5625 277.0625 C-250.5625 276.0625 -250.5625 276.0625 -248.84277344 276.72412109 C-248.20887695 277.09102051 -247.57498047 277.45791992 -246.921875 277.8359375 C-246.19395752 278.24400635 -245.46604004 278.6520752 -244.71606445 279.07250977 C-243.92288818 279.52295654 -243.12971191 279.97340332 -242.3125 280.4375 C-199.90569999 303.45902923 -121.01267587 328.86639142 -73.5625 318.0625 C-74.1387915 317.97274902 -74.71508301 317.88299805 -75.30883789 317.79052734 C-122.22682048 310.36173113 -171.87190814 295.22902699 -207.33203125 262.140625 C-209.38032622 260.23223109 -211.48285597 258.42625274 -213.625 256.625 C-227.07584076 244.81516182 -237.14376054 229.71797824 -245.5625 214.0625 C-249.30741919 217.71890292 -252.79113757 221.51916033 -256.1875 225.5 C-256.96855103 226.41471069 -256.96855103 226.41471069 -257.76538086 227.34790039 C-263.21882525 233.7766771 -268.44167694 240.36703308 -273.5625 247.0625 C-274.00948242 247.6404834 -274.45646484 248.2184668 -274.91699219 248.81396484 C-293.10138441 272.41178124 -304.94546588 297.32094088 -312.5625 326.0625 C-312.8925 326.0625 -313.2225 326.0625 -313.5625 326.0625 C-313.8238239 317.68146924 -312.84045441 309.48868823 -311.8125 301.1875 C-311.67761673 300.08518539 -311.67761673 300.08518539 -311.54000854 298.96060181 C-310.22137606 288.26881009 -308.65410271 277.71026453 -306.09228516 267.23730469 C-305.53181901 264.9365524 -305.00559468 262.62937023 -304.48046875 260.3203125 C-293.12371222 211.48674536 -269.79166863 164.50512904 -237.5625 126.0625 C-236.6895728 124.9991339 -235.8171876 123.93532266 -234.9453125 122.87109375 C-227.84109396 114.27281614 -220.25641871 106.13275169 -212.5625 98.0625 C-211.8096875 97.26714844 -211.056875 96.47179687 -210.28125 95.65234375 C-205.90091006 91.13736221 -201.16058898 87.1937407 -196.25390625 83.26171875 C-193.93732986 81.36878332 -191.74909039 79.41378905 -189.5625 77.375 C-158.06642228 49.18545001 -117.2075342 28.71214961 -77.5625 15.0625 C-76.84126953 14.81064941 -76.12003906 14.55879883 -75.37695312 14.29931641 C-56.37473578 7.73635786 -36.49608513 3.49657536 -16.5625 1.0625 C-15.42760132 0.91784302 -15.42760132 0.91784302 -14.26977539 0.77026367 C-9.4889784 0.19152759 -4.82402403 -0.04683518 0 0 Z " fill="#05060D" transform="translate(486.5625,173.9375)"/>
<path d="M0 0 C0.85858916 43.36976029 -5.91721173 89.12628293 -34 124 C-34.40444336 124.50450684 -34.80888672 125.00901367 -35.22558594 125.52880859 C-55.82452094 151.04885861 -80.51151373 168.03529547 -111 180 C-111.65645508 180.26151855 -112.31291016 180.52303711 -112.98925781 180.79248047 C-137.25247859 190.27791214 -166.05857491 193.95165554 -192 193 C-193.40868466 140.3368658 -178.63265105 91.00397017 -142.5234375 51.62890625 C-132.94495006 41.65007955 -122.69973299 33.38170472 -111 26 C-110.37287109 25.60184082 -109.74574219 25.20368164 -109.09960938 24.79345703 C-79.66363637 6.41523829 -34.65673388 -7.39507412 0 0 Z " fill="#FEFEFE" transform="translate(494,529)"/>
<path d="M0 0 C12.71901964 -0.38542484 24.66011692 0.66874288 37.1875 2.8125 C38.80904179 3.07741742 40.43078721 3.34109151 42.05273438 3.60351562 C69.74406261 8.12920152 69.74406261 8.12920152 82.125 12.5 C83.57471191 13.00950195 83.57471191 13.00950195 85.05371094 13.52929688 C99.65990163 18.86224382 113.97122994 26.06633104 126 36 C126.54172852 36.43924805 127.08345703 36.87849609 127.64160156 37.33105469 C167.39381696 69.68037818 187.97589194 118.3748311 193.5390625 168.56640625 C194.27709483 176.35473608 194.49169807 184.18956526 194 192 C192.00780961 193.99219039 188.2190085 193.16965783 185.54907227 193.19067383 C174.85575229 193.17976656 164.5513321 192.87840447 154 191 C153.12827148 190.84934082 152.25654297 190.69868164 151.35839844 190.54345703 C111.13420997 183.41000214 76.50323004 166.0629836 47 138 C46.03320312 137.11248047 46.03320312 137.11248047 45.046875 136.20703125 C20.20380625 112.69898722 7.85852824 77.99750432 3 45 C2.85046875 44.02095703 2.7009375 43.04191406 2.546875 42.03320312 C0.43169169 27.94717633 -0.40039349 14.23621303 0 0 Z " fill="#FEFEFE" transform="translate(529,529)"/>
<path d="M0 0 C14.91539218 -0.44548185 29.26625168 0.65032265 44 3 C44.98516602 3.1556543 45.97033203 3.31130859 46.98535156 3.47167969 C76.02621245 8.27190117 103.70144149 19.97933772 127 38 C127.91652344 38.69351563 128.83304688 39.38703125 129.77734375 40.1015625 C164.21742174 67.10743863 182.37703163 104.38517819 189 147 C189.18095215 148.06412109 189.3619043 149.12824219 189.54833984 150.22460938 C190.98334717 159.17662333 191.24034543 167.83369271 191.125 176.875 C191.11493026 178.25650378 191.1058116 179.63801484 191.09765625 181.01953125 C191.0743904 184.34654732 191.04170564 187.67317285 191 191 C154.28567578 191.6199059 154.28567578 191.6199059 138 188 C136.58489691 187.71743724 135.16952871 187.43619914 133.75390625 187.15625 C93.26060268 178.76808629 54.2025412 154.02132033 31.19140625 119.4140625 C7.68493694 83.20392021 -0.3770818 42.70886475 0 0 Z " fill="#FEFEFE" transform="translate(303,303)"/>
<path d="M0 0 C0.21980578 28.7100168 -2.3241403 54.79019493 -12 82 C-12.22768066 82.64694824 -12.45536133 83.29389648 -12.68994141 83.96044922 C-27.09893599 124.17815781 -56.41108426 155.8943167 -94.84765625 174.18359375 C-102.00591341 177.42361085 -109.49102945 179.72809371 -117 182 C-117.96164062 182.30679688 -118.92328125 182.61359375 -119.9140625 182.9296875 C-128.03305871 185.36789998 -136.43541502 186.42159418 -144.80126953 187.66357422 C-147.66808731 188.10222344 -150.52043766 188.61322587 -153.375 189.125 C-165.87720835 191.19433104 -178.36988607 191.12003276 -191 191 C-192.61041299 157.23583353 -186.34211077 123.62365037 -172 93 C-171.53255371 91.99912354 -171.53255371 91.99912354 -171.05566406 90.97802734 C-153.31865481 53.78661588 -118.62138031 26.68512639 -80.29882812 13.03808594 C-54.90870732 4.44843716 -26.89273844 -1.16362811 0 0 Z " fill="#FEFEFE" transform="translate(720,303)"/>
<path d="M0 0 C-4.95 0.33 -9.9 0.66 -15 1 C-9.95496859 -4.04503141 -5.86629604 -2.93314802 0 0 Z " fill="#2D2E34" transform="translate(542,850)"/>
</svg>
